<svg height="512pt" viewBox="0 0 512 512" width="512pt" xmlns="http://www.w3.org/2000/svg" xmlns:xlink="http://www.w3.org/1999/xlink"><linearGradient id="a" gradientTransform="matrix(1 0 0 -1 0 -11082)" gradientUnits="userSpaceOnUse" x1="0" x2="512" y1="-11338" y2="-11338"><stop offset="0" stop-color="#31d8ff"/><stop offset="1" stop-color="#ff80ff"/></linearGradient><path d="m512 256c0 141.386719-114.613281 256-256 256s-256-114.613281-256-256 114.613281-256 256-256 256 114.613281 256 256zm0 0" fill="url(#a)"/><g fill="#fff"><path d="m426 125.746094h-340c-8.285156 0-15 6.714844-15 15v230.507812c0 8.285156 6.714844 15 15 15h340c8.285156 0 15-6.714844 15-15v-230.507812c0-8.285156-6.714844-15-15-15zm-15 230.507812h-310v-200.507812h310zm0 0"/><path d="m129.21875 307.015625c11.589844 0 21.019531 9.429687 21.019531 21.019531 0 8.28125 6.714844 15 15 15h181.523438c8.285156 0 15-6.71875 15-15 0-11.589844 9.429687-21.019531 21.015625-21.019531 8.285156 0 15-6.714844 15-15v-72.03125c0-8.285156-6.714844-15-15-15-11.585938 0-21.015625-9.429687-21.015625-21.019531 0-8.28125-6.714844-15-15-15h-181.523438c-8.285156 0-15 6.71875-15 15 0 11.589844-9.429687 21.019531-21.019531 21.019531-8.28125 0-15 6.714844-15 15v72.03125c0 8.285156 6.71875 15 15 15zm15-74.28125c16.089844-4.960937 28.808594-17.679687 33.769531-33.769531h156.023438c4.960937 16.089844 17.679687 28.808594 33.769531 33.769531v46.53125c-16.089844 4.960937-28.808594 17.679687-33.769531 33.765625h-156.023438c-4.960937-16.085938-17.679687-28.804688-33.769531-33.765625zm0 0"/><path d="m256 299.8125c24.160156 0 43.8125-19.65625 43.8125-43.8125s-19.652344-43.8125-43.8125-43.8125-43.8125 19.652344-43.8125 43.8125 19.652344 43.8125 43.8125 43.8125zm0-57.625c7.617188 0 13.8125 6.195312 13.8125 13.8125s-6.195312 13.8125-13.8125 13.8125-13.8125-6.195312-13.8125-13.8125 6.195312-13.8125 13.8125-13.8125zm0 0"/></g></svg>