<svg fill="#000000" xmlns="http://www.w3.org/2000/svg" viewBox="0 0 50 50" width="50px" height="50px"><path d="M 25 2 C 12.309295 2 2 12.309295 2 25 C 2 37.690705 12.309295 48 25 48 C 37.690705 48 48 37.690705 48 25 C 48 12.309295 37.690705 2 25 2 z M 25 4 C 36.609824 4 46 13.390176 46 25 C 46 36.609824 36.609824 46 25 46 C 13.390176 46 4 36.609824 4 25 C 4 13.390176 13.390176 4 25 4 z M 24.960938 9.9863281 A 1.0001 1.0001 0 0 0 24.037109 10.730469 L 20.310547 24.042969 L 14.664062 26.058594 A 1.0001 1.0001 0 1 0 15.335938 27.941406 L 19.648438 26.400391 L 16.681641 37 L 34 37 A 1.0001 1.0001 0 1 0 34 35 L 19.318359 35 L 21.957031 25.576172 L 29.335938 22.941406 A 1.0001 1.0001 0 0 0 29.025391 20.996094 A 1.0001 1.0001 0 0 0 28.664062 21.058594 L 22.617188 23.21875 L 25.962891 11.269531 A 1.0001 1.0001 0 0 0 24.960938 9.9863281 z"/></svg>