<svg height="394pt" viewBox="0 0 394 393" width="394pt" xmlns="http://www.w3.org/2000/svg" xmlns:xlink="http://www.w3.org/1999/xlink"><linearGradient id="a"><stop offset=".322" stop-color="#a163f5"/><stop offset=".466" stop-color="#b074ee"/><stop offset=".752" stop-color="#d8a1dd"/><stop offset=".898" stop-color="#efbad3"/></linearGradient><linearGradient id="b" gradientUnits="userSpaceOnUse" x1="197.000001" x2="197.000001" xlink:href="#a" y1="425.254874" y2="-39.831126"/><linearGradient id="c" gradientUnits="userSpaceOnUse" x1="197.249001" x2="197.249001" xlink:href="#a" y1="425.254874" y2="-39.831126"/><path d="m387.671875 162.640625-36.335937-3.5c-3.890626-15.449219-10.105469-30.214844-18.4375-43.789063l23.136718-27.9375c2.292969-2.769531 2.117188-6.824218-.410156-9.382812l-38.847656-39.34375c-2.550782-2.585938-6.648438-2.789062-9.445313-.476562l-27.984375 23.175781c-13.582031-8.292969-28.324218-14.515625-43.738281-18.472657l-3.5-36.214843c-.359375-3.5625-3.386719-6.253907-6.96875-6.199219h-55.777344c-3.582031-.054688-6.609375 2.636719-6.96875 6.199219l-3.5 36.277343c-15.445312 3.875-30.210937 10.078126-43.785156 18.398438l-27.945313-23.144531c-2.777343-2.308594-6.855468-2.121094-9.414062.429687l-39.34375 39.34375c-2.554688 2.554688-2.746094 6.628906-.441406 9.410156l23.175781 27.984376c-8.292969 13.582031-14.519531 28.320312-18.472656 43.738281l-36.339844 3.5c-3.589844.34375-6.33203125 3.363281-6.328125 6.96875v55.78125c0 3.605469 2.738281 6.621093 6.328125 6.96875l36.335937 3.5c3.890626 15.445312 10.105469 30.210937 18.4375 43.789062l-23.136718 27.933594c-2.304688 2.785156-2.113282 6.863281.441406 9.417969l39.34375 39.34375c2.554688 2.554687 6.632812 2.746094 9.414062.441406l27.984376-23.175781c13.585937 8.292969 28.324218 14.519531 43.742187 18.472656l3.5 36.214844c.359375 3.5625 3.386719 6.257812 6.964844 6.199219h55.78125c3.578125.058593 6.605469-2.636719 6.964843-6.199219l3.5-36.273438c15.445313-3.875 30.210938-10.082031 43.789063-18.402343l27.9375 23.152343c2.777344 2.304688 6.855469 2.117188 9.414063-.433593l39.34375-39.339844c2.554687-2.554688 2.746093-6.632813.441406-9.414063l-23.167969-27.984375c8.292969-13.585937 14.519531-28.328125 18.472656-43.746094l35.847657-3.5c3.585937-.347656 6.320312-3.363281 6.320312-6.964843v-55.78125c0-3.605469-2.738281-6.621094-6.328125-6.964844zm-7.671875 56.394531-34.519531 3.367188c-3.027344.296875-5.519531 2.515625-6.160157 5.488281-3.839843 17.265625-10.769531 33.691406-20.457031 48.484375-1.65625 2.566406-1.457031 5.910156.492188 8.261719l22.332031 26.960937-30.332031 30.332032-26.96875-22.332032c-2.378907-1.972656-5.773438-2.148437-8.347657-.433594-14.726562 9.746094-31.140624 16.664063-48.398437 20.402344-2.960937.585938-5.1875 3.042969-5.488281 6.042969l-3.371094 34.886719h-43.0625l-3.375-34.882813c-.296875-3.019531-2.519531-5.492187-5.488281-6.109375-17.261719-3.824218-33.6875-10.746094-48.484375-20.421875-2.570313-1.652343-5.914063-1.449219-8.261719.503907l-26.964844 22.339843-30.332031-30.328125 22.332031-26.964844c1.972657-2.382812 2.148438-5.773437.429688-8.347656-9.742188-14.726562-16.660157-31.140625-20.398438-48.398437-.644531-2.976563-3.136719-5.195313-6.167969-5.488281l-35.007812-3.371094v-43.0625l35.007812-3.375c3.03125-.292969 5.527344-2.511719 6.171876-5.488282 3.835937-17.261718 10.765624-33.6875 20.453124-48.484374 1.65625-2.566407 1.457032-5.90625-.488281-8.257813l-22.332031-26.960937 30.332031-30.335938 26.964844 22.335938c2.382813 1.972656 5.777344 2.148437 8.347656.429687 14.726563-9.742187 31.140625-16.660156 48.402344-20.398437 2.960937-.589844 5.1875-3.042969 5.488281-6.046876l3.371094-34.886718h43.0625l3.375 34.886718c.296875 3.015626 2.519531 5.488282 5.488281 6.105469 17.261719 3.828125 33.6875 10.746094 48.484375 20.425781 2.566406 1.648438 5.910156 1.445313 8.257813-.507812l26.933593-22.308594 29.894532 30.269532-22.359375 27c-1.972657 2.382812-2.148438 5.773437-.429688 8.347656 9.742188 14.726562 16.660157 31.140625 20.398438 48.398437.644531 2.976563 3.136719 5.199219 6.167969 5.488281l35.007812 3.363282zm0 0" fill="url(#b)"/><path d="m197.25 81.898438c-63.84375 0-115.601562 51.753906-115.601562 115.597656s51.757812 115.601562 115.601562 115.601562 115.601562-51.757812 115.601562-115.601562c-.074218-63.8125-51.789062-115.527344-115.601562-115.597656zm0 217.199218c-56.113281 0-101.601562-45.488281-101.601562-101.601562 0-56.113282 45.488281-101.597656 101.601562-101.597656s101.601562 45.488281 101.601562 101.597656c-.066406 56.085937-45.515624 101.535156-101.601562 101.601562zm0 0" fill="url(#c)"/><path d="m237.109375 164.234375-52.984375 51.734375-27.234375-26.59375c-2.765625-2.699219-7.199219-2.644531-9.898437.121094-2.703126 2.765625-2.648438 7.199218.117187 9.898437l32.125 31.363281c2.71875 2.65625 7.058594 2.65625 9.78125 0l57.875-56.503906c1.8125-1.742187 2.550781-4.324218 1.933594-6.761718-.613281-2.433594-2.488281-4.355469-4.910157-5.027344-2.421874-.675782-5.019531 0-6.804687 1.769531zm0 0" fill="url(#b)"/></svg>